<mxfile host="app.diagrams.net" modified="2020-10-28T09:18:26.024Z" agent="5.0 (Windows NT 10.0; Win64; x64) AppleWebKit/537.36 (KHTML, like Gecko) Chrome/86.0.4240.111 Safari/537.36 Edg/86.0.622.51" etag="mJCZm0DVC-DB9Z8ZVRTK" version="13.8.5" type="github">
  <diagram id="9qYuZbIuOuyvhr_rDu7I" name="第 1 页">
    <mxGraphModel dx="1673" dy="934" grid="1" gridSize="10" guides="1" tooltips="1" connect="1" arrows="1" fold="1" page="1" pageScale="1" pageWidth="1169" pageHeight="827" math="0" shadow="0">
      <root>
        <mxCell id="0" />
        <mxCell id="1" parent="0" />
        <mxCell id="a5EtpKqR1Ngd7XkOR4_C-20" style="edgeStyle=orthogonalEdgeStyle;rounded=0;orthogonalLoop=1;jettySize=auto;html=1;exitX=1;exitY=0.5;exitDx=0;exitDy=0;entryX=1;entryY=0.5;entryDx=0;entryDy=0;fontFamily=仿宋;fontSource=https%3A%2F%2Ffonts.googleapis.com%2Fcss%3Ffamily%3D%25E4%25BB%25BF%25E5%25AE%258B;fontSize=25;fontColor=#028760;strokeWidth=2;startArrow=none;startFill=0;endArrow=none;endFill=0;" edge="1" parent="1" source="a5EtpKqR1Ngd7XkOR4_C-1" target="a5EtpKqR1Ngd7XkOR4_C-4">
          <mxGeometry relative="1" as="geometry">
            <Array as="points">
              <mxPoint x="380" y="69" />
              <mxPoint x="380" y="118" />
            </Array>
          </mxGeometry>
        </mxCell>
        <mxCell id="a5EtpKqR1Ngd7XkOR4_C-1" value="&lt;div style=&quot;background-color: rgb(255, 255, 255); font-size: 25px; line-height: 20px;&quot;&gt;&lt;span style=&quot;font-size: 25px;&quot;&gt;落叶常绿混交林&lt;/span&gt;&lt;/div&gt;" style="rounded=0;whiteSpace=wrap;html=1;fillColor=none;fontFamily=仿宋;fontSource=https%3A%2F%2Ffonts.googleapis.com%2Fcss%3Ffamily%3D%25E4%25BB%25BF%25E5%25AE%258B;fontStyle=1;fontSize=25;fontColor=#028760;spacing=2;" vertex="1" parent="1">
          <mxGeometry x="40" y="50" width="200" height="38" as="geometry" />
        </mxCell>
        <mxCell id="a5EtpKqR1Ngd7XkOR4_C-4" value="&lt;div style=&quot;background-color: rgb(255 , 255 , 255) ; line-height: 20px&quot;&gt;落叶阔叶林&lt;br&gt;&lt;/div&gt;" style="rounded=0;whiteSpace=wrap;html=1;fillColor=none;fontFamily=仿宋;fontSource=https%3A%2F%2Ffonts.googleapis.com%2Fcss%3Ffamily%3D%25E4%25BB%25BF%25E5%25AE%258B;fontStyle=1;fontSize=25;fontColor=#028760;spacing=2;" vertex="1" parent="1">
          <mxGeometry x="40" y="99" width="200" height="38" as="geometry" />
        </mxCell>
        <mxCell id="a5EtpKqR1Ngd7XkOR4_C-21" style="edgeStyle=orthogonalEdgeStyle;rounded=0;orthogonalLoop=1;jettySize=auto;html=1;exitX=1;exitY=0.5;exitDx=0;exitDy=0;startArrow=none;startFill=0;endArrow=none;endFill=0;strokeWidth=2;fontFamily=仿宋;fontSource=https%3A%2F%2Ffonts.googleapis.com%2Fcss%3Ffamily%3D%25E4%25BB%25BF%25E5%25AE%258B;fontSize=25;fontColor=#028760;" edge="1" parent="1" source="a5EtpKqR1Ngd7XkOR4_C-5">
          <mxGeometry relative="1" as="geometry">
            <mxPoint x="380" y="90" as="targetPoint" />
            <Array as="points">
              <mxPoint x="460" y="168" />
              <mxPoint x="460" y="90" />
            </Array>
          </mxGeometry>
        </mxCell>
        <mxCell id="a5EtpKqR1Ngd7XkOR4_C-5" value="&lt;div style=&quot;background-color: rgb(255 , 255 , 255) ; line-height: 20px&quot;&gt;灌丛&lt;br&gt;&lt;/div&gt;" style="rounded=0;whiteSpace=wrap;html=1;fillColor=none;fontFamily=仿宋;fontSource=https%3A%2F%2Ffonts.googleapis.com%2Fcss%3Ffamily%3D%25E4%25BB%25BF%25E5%25AE%258B;fontStyle=1;fontSize=25;fontColor=#028760;spacing=2;" vertex="1" parent="1">
          <mxGeometry x="40" y="149" width="200" height="38" as="geometry" />
        </mxCell>
        <mxCell id="a5EtpKqR1Ngd7XkOR4_C-22" style="edgeStyle=orthogonalEdgeStyle;rounded=0;orthogonalLoop=1;jettySize=auto;html=1;exitX=1;exitY=0.5;exitDx=0;exitDy=0;startArrow=none;startFill=0;endArrow=none;endFill=0;strokeWidth=2;fontFamily=仿宋;fontSource=https%3A%2F%2Ffonts.googleapis.com%2Fcss%3Ffamily%3D%25E4%25BB%25BF%25E5%25AE%258B;fontSize=25;fontColor=#028760;" edge="1" parent="1" source="a5EtpKqR1Ngd7XkOR4_C-7">
          <mxGeometry relative="1" as="geometry">
            <mxPoint x="460" y="120" as="targetPoint" />
            <Array as="points">
              <mxPoint x="600" y="217" />
              <mxPoint x="600" y="120" />
            </Array>
          </mxGeometry>
        </mxCell>
        <mxCell id="a5EtpKqR1Ngd7XkOR4_C-7" value="&lt;div style=&quot;background-color: rgb(255 , 255 , 255) ; line-height: 20px&quot;&gt;&lt;font color=&quot;#7ebea5&quot;&gt;高覆盖草地&lt;/font&gt;&lt;br&gt;&lt;/div&gt;" style="rounded=0;whiteSpace=wrap;html=1;fillColor=none;fontFamily=仿宋;fontSource=https%3A%2F%2Ffonts.googleapis.com%2Fcss%3Ffamily%3D%25E4%25BB%25BF%25E5%25AE%258B;fontStyle=1;fontSize=25;fontColor=#028760;spacing=2;" vertex="1" parent="1">
          <mxGeometry x="40" y="198" width="200" height="38" as="geometry" />
        </mxCell>
        <mxCell id="a5EtpKqR1Ngd7XkOR4_C-26" style="edgeStyle=orthogonalEdgeStyle;rounded=0;orthogonalLoop=1;jettySize=auto;html=1;exitX=1;exitY=0.5;exitDx=0;exitDy=0;startArrow=none;startFill=0;endArrow=none;endFill=0;strokeWidth=2;fontFamily=仿宋;fontSource=https%3A%2F%2Ffonts.googleapis.com%2Fcss%3Ffamily%3D%25E4%25BB%25BF%25E5%25AE%258B;fontSize=25;fontColor=#028760;" edge="1" parent="1" source="a5EtpKqR1Ngd7XkOR4_C-8">
          <mxGeometry relative="1" as="geometry">
            <mxPoint x="520" y="389.9999999999998" as="targetPoint" />
            <Array as="points">
              <mxPoint x="600" y="266" />
              <mxPoint x="600" y="390" />
            </Array>
          </mxGeometry>
        </mxCell>
        <mxCell id="a5EtpKqR1Ngd7XkOR4_C-8" value="&lt;div style=&quot;background-color: rgb(255 , 255 , 255) ; line-height: 20px&quot;&gt;&lt;font color=&quot;#165e83&quot;&gt;常绿针叶林&lt;/font&gt;&lt;br&gt;&lt;/div&gt;" style="rounded=0;whiteSpace=wrap;html=1;fillColor=none;fontFamily=仿宋;fontSource=https%3A%2F%2Ffonts.googleapis.com%2Fcss%3Ffamily%3D%25E4%25BB%25BF%25E5%25AE%258B;fontStyle=1;fontSize=25;fontColor=#028760;spacing=2;" vertex="1" parent="1">
          <mxGeometry x="40" y="247" width="200" height="38" as="geometry" />
        </mxCell>
        <mxCell id="a5EtpKqR1Ngd7XkOR4_C-9" value="&lt;div style=&quot;background-color: rgb(255 , 255 , 255) ; line-height: 20px&quot;&gt;&lt;font color=&quot;#2ca9e1&quot;&gt;湿地&lt;/font&gt;&lt;br&gt;&lt;/div&gt;" style="rounded=0;whiteSpace=wrap;html=1;fillColor=none;fontFamily=仿宋;fontSource=https%3A%2F%2Ffonts.googleapis.com%2Fcss%3Ffamily%3D%25E4%25BB%25BF%25E5%25AE%258B;fontStyle=1;fontSize=25;fontColor=#028760;spacing=2;" vertex="1" parent="1">
          <mxGeometry x="40" y="444" width="200" height="38" as="geometry" />
        </mxCell>
        <mxCell id="a5EtpKqR1Ngd7XkOR4_C-23" style="edgeStyle=orthogonalEdgeStyle;rounded=0;orthogonalLoop=1;jettySize=auto;html=1;exitX=1;exitY=0.5;exitDx=0;exitDy=0;entryX=1;entryY=0.5;entryDx=0;entryDy=0;startArrow=none;startFill=0;endArrow=none;endFill=0;strokeWidth=2;fontFamily=仿宋;fontSource=https%3A%2F%2Ffonts.googleapis.com%2Fcss%3Ffamily%3D%25E4%25BB%25BF%25E5%25AE%258B;fontSize=25;fontColor=#028760;" edge="1" parent="1" source="a5EtpKqR1Ngd7XkOR4_C-10" target="a5EtpKqR1Ngd7XkOR4_C-11">
          <mxGeometry relative="1" as="geometry">
            <Array as="points">
              <mxPoint x="380" y="315" />
              <mxPoint x="380" y="365" />
            </Array>
          </mxGeometry>
        </mxCell>
        <mxCell id="a5EtpKqR1Ngd7XkOR4_C-10" value="&lt;div style=&quot;background-color: rgb(255 , 255 , 255) ; line-height: 20px&quot;&gt;&lt;font color=&quot;#2ca9e1&quot;&gt;积雪和冰&lt;/font&gt;&lt;br&gt;&lt;/div&gt;" style="rounded=0;whiteSpace=wrap;html=1;fillColor=none;fontFamily=仿宋;fontSource=https%3A%2F%2Ffonts.googleapis.com%2Fcss%3Ffamily%3D%25E4%25BB%25BF%25E5%25AE%258B;fontStyle=1;fontSize=25;fontColor=#028760;spacing=2;" vertex="1" parent="1">
          <mxGeometry x="40" y="296" width="200" height="38" as="geometry" />
        </mxCell>
        <mxCell id="a5EtpKqR1Ngd7XkOR4_C-11" value="&lt;div style=&quot;background-color: rgb(255 , 255 , 255) ; line-height: 20px&quot;&gt;&lt;font color=&quot;#2ca9e1&quot;&gt;沙漠和裸土&lt;/font&gt;&lt;br&gt;&lt;/div&gt;" style="rounded=0;whiteSpace=wrap;html=1;fillColor=none;fontFamily=仿宋;fontSource=https%3A%2F%2Ffonts.googleapis.com%2Fcss%3Ffamily%3D%25E4%25BB%25BF%25E5%25AE%258B;fontStyle=1;fontSize=25;fontColor=#028760;spacing=2;" vertex="1" parent="1">
          <mxGeometry x="40" y="346" width="200" height="38" as="geometry" />
        </mxCell>
        <mxCell id="a5EtpKqR1Ngd7XkOR4_C-24" style="edgeStyle=orthogonalEdgeStyle;rounded=0;orthogonalLoop=1;jettySize=auto;html=1;exitX=1;exitY=0.5;exitDx=0;exitDy=0;entryX=1;entryY=0.5;entryDx=0;entryDy=0;startArrow=none;startFill=0;endArrow=none;endFill=0;strokeWidth=2;fontFamily=仿宋;fontSource=https%3A%2F%2Ffonts.googleapis.com%2Fcss%3Ffamily%3D%25E4%25BB%25BF%25E5%25AE%258B;fontSize=25;fontColor=#028760;" edge="1" parent="1" source="a5EtpKqR1Ngd7XkOR4_C-12" target="a5EtpKqR1Ngd7XkOR4_C-9">
          <mxGeometry relative="1" as="geometry">
            <Array as="points">
              <mxPoint x="380" y="414" />
              <mxPoint x="380" y="463" />
            </Array>
          </mxGeometry>
        </mxCell>
        <mxCell id="a5EtpKqR1Ngd7XkOR4_C-12" value="&lt;div style=&quot;background-color: rgb(255 , 255 , 255) ; line-height: 20px&quot;&gt;&lt;font color=&quot;#2ca9e1&quot;&gt;地表水&lt;/font&gt;&lt;br&gt;&lt;/div&gt;" style="rounded=0;whiteSpace=wrap;html=1;fillColor=none;fontFamily=仿宋;fontSource=https%3A%2F%2Ffonts.googleapis.com%2Fcss%3Ffamily%3D%25E4%25BB%25BF%25E5%25AE%258B;fontStyle=1;fontSize=25;fontColor=#028760;spacing=2;" vertex="1" parent="1">
          <mxGeometry x="40" y="395" width="200" height="38" as="geometry" />
        </mxCell>
        <mxCell id="a5EtpKqR1Ngd7XkOR4_C-27" style="edgeStyle=orthogonalEdgeStyle;rounded=0;orthogonalLoop=1;jettySize=auto;html=1;exitX=1;exitY=0.5;exitDx=0;exitDy=0;entryX=1;entryY=0.5;entryDx=0;entryDy=0;startArrow=none;startFill=0;endArrow=none;endFill=0;strokeWidth=2;fontFamily=仿宋;fontSource=https%3A%2F%2Ffonts.googleapis.com%2Fcss%3Ffamily%3D%25E4%25BB%25BF%25E5%25AE%258B;fontSize=25;fontColor=#028760;" edge="1" parent="1" source="a5EtpKqR1Ngd7XkOR4_C-13" target="a5EtpKqR1Ngd7XkOR4_C-14">
          <mxGeometry relative="1" as="geometry">
            <Array as="points">
              <mxPoint x="370" y="513" />
              <mxPoint x="370" y="562" />
            </Array>
          </mxGeometry>
        </mxCell>
        <mxCell id="a5EtpKqR1Ngd7XkOR4_C-13" value="&lt;div style=&quot;background-color: rgb(255 , 255 , 255) ; line-height: 20px&quot;&gt;&lt;font color=&quot;#e95464&quot;&gt;果园和梯田&lt;/font&gt;&lt;br&gt;&lt;/div&gt;" style="rounded=0;whiteSpace=wrap;html=1;fillColor=none;fontFamily=仿宋;fontSource=https%3A%2F%2Ffonts.googleapis.com%2Fcss%3Ffamily%3D%25E4%25BB%25BF%25E5%25AE%258B;fontStyle=1;fontSize=25;fontColor=#028760;spacing=2;" vertex="1" parent="1">
          <mxGeometry x="40" y="494" width="200" height="38" as="geometry" />
        </mxCell>
        <mxCell id="a5EtpKqR1Ngd7XkOR4_C-14" value="&lt;div style=&quot;background-color: rgb(255 , 255 , 255) ; line-height: 20px&quot;&gt;&lt;font color=&quot;#e95464&quot;&gt;谷物耕地&lt;/font&gt;&lt;br&gt;&lt;/div&gt;" style="rounded=0;whiteSpace=wrap;html=1;fillColor=none;fontFamily=仿宋;fontSource=https%3A%2F%2Ffonts.googleapis.com%2Fcss%3Ffamily%3D%25E4%25BB%25BF%25E5%25AE%258B;fontStyle=1;fontSize=25;fontColor=#028760;spacing=2;" vertex="1" parent="1">
          <mxGeometry x="40" y="543" width="200" height="38" as="geometry" />
        </mxCell>
        <mxCell id="a5EtpKqR1Ngd7XkOR4_C-28" style="edgeStyle=orthogonalEdgeStyle;rounded=0;orthogonalLoop=1;jettySize=auto;html=1;exitX=1;exitY=0.5;exitDx=0;exitDy=0;startArrow=none;startFill=0;endArrow=none;endFill=0;strokeWidth=2;fontFamily=仿宋;fontSource=https%3A%2F%2Ffonts.googleapis.com%2Fcss%3Ffamily%3D%25E4%25BB%25BF%25E5%25AE%258B;fontSize=25;fontColor=#028760;" edge="1" parent="1" source="a5EtpKqR1Ngd7XkOR4_C-15">
          <mxGeometry relative="1" as="geometry">
            <mxPoint x="370" y="539.9999999999998" as="targetPoint" />
            <Array as="points">
              <mxPoint x="510" y="611" />
              <mxPoint x="510" y="540" />
            </Array>
          </mxGeometry>
        </mxCell>
        <mxCell id="a5EtpKqR1Ngd7XkOR4_C-15" value="&lt;div style=&quot;background-color: rgb(255 , 255 , 255) ; line-height: 20px&quot;&gt;&lt;font color=&quot;#e95464&quot;&gt;城市及建设用地&lt;/font&gt;&lt;br&gt;&lt;/div&gt;" style="rounded=0;whiteSpace=wrap;html=1;fillColor=none;fontFamily=仿宋;fontSource=https%3A%2F%2Ffonts.googleapis.com%2Fcss%3Ffamily%3D%25E4%25BB%25BF%25E5%25AE%258B;fontStyle=1;fontSize=25;fontColor=#028760;spacing=2;" vertex="1" parent="1">
          <mxGeometry x="40" y="592" width="200" height="38" as="geometry" />
        </mxCell>
        <mxCell id="a5EtpKqR1Ngd7XkOR4_C-29" style="edgeStyle=orthogonalEdgeStyle;rounded=0;orthogonalLoop=1;jettySize=auto;html=1;exitX=1;exitY=0.5;exitDx=0;exitDy=0;entryX=1;entryY=0.5;entryDx=0;entryDy=0;startArrow=none;startFill=0;endArrow=none;endFill=0;strokeWidth=2;fontFamily=仿宋;fontSource=https%3A%2F%2Ffonts.googleapis.com%2Fcss%3Ffamily%3D%25E4%25BB%25BF%25E5%25AE%258B;fontSize=25;fontColor=#028760;" edge="1" parent="1" source="a5EtpKqR1Ngd7XkOR4_C-17" target="a5EtpKqR1Ngd7XkOR4_C-18">
          <mxGeometry relative="1" as="geometry">
            <Array as="points">
              <mxPoint x="360" y="660" />
              <mxPoint x="360" y="710" />
            </Array>
          </mxGeometry>
        </mxCell>
        <mxCell id="a5EtpKqR1Ngd7XkOR4_C-17" value="&lt;div style=&quot;background-color: rgb(255 , 255 , 255) ; line-height: 20px&quot;&gt;&lt;font color=&quot;#f39800&quot;&gt;中覆盖草地&lt;/font&gt;&lt;br&gt;&lt;/div&gt;" style="rounded=0;whiteSpace=wrap;html=1;fillColor=none;fontFamily=仿宋;fontSource=https%3A%2F%2Ffonts.googleapis.com%2Fcss%3Ffamily%3D%25E4%25BB%25BF%25E5%25AE%258B;fontStyle=1;fontSize=25;fontColor=#028760;spacing=2;" vertex="1" parent="1">
          <mxGeometry x="40" y="641" width="200" height="38" as="geometry" />
        </mxCell>
        <mxCell id="a5EtpKqR1Ngd7XkOR4_C-18" value="&lt;div style=&quot;background-color: rgb(255 , 255 , 255) ; line-height: 20px&quot;&gt;&lt;font color=&quot;#f39800&quot;&gt;低覆盖草地&lt;/font&gt;&lt;br&gt;&lt;/div&gt;" style="rounded=0;whiteSpace=wrap;html=1;fillColor=none;fontFamily=仿宋;fontSource=https%3A%2F%2Ffonts.googleapis.com%2Fcss%3Ffamily%3D%25E4%25BB%25BF%25E5%25AE%258B;fontStyle=1;fontSize=25;fontColor=#028760;spacing=2;" vertex="1" parent="1">
          <mxGeometry x="40" y="691" width="200" height="38" as="geometry" />
        </mxCell>
        <mxCell id="a5EtpKqR1Ngd7XkOR4_C-31" style="edgeStyle=orthogonalEdgeStyle;rounded=0;orthogonalLoop=1;jettySize=auto;html=1;exitX=1;exitY=0.5;exitDx=0;exitDy=0;startArrow=none;startFill=0;endArrow=none;endFill=0;strokeWidth=2;fontFamily=仿宋;fontSource=https%3A%2F%2Ffonts.googleapis.com%2Fcss%3Ffamily%3D%25E4%25BB%25BF%25E5%25AE%258B;fontSize=25;fontColor=#028760;" edge="1" parent="1" source="a5EtpKqR1Ngd7XkOR4_C-19">
          <mxGeometry relative="1" as="geometry">
            <mxPoint x="600" y="619.9999999999998" as="targetPoint" />
            <Array as="points">
              <mxPoint x="690" y="759" />
              <mxPoint x="690" y="620" />
            </Array>
          </mxGeometry>
        </mxCell>
        <mxCell id="a5EtpKqR1Ngd7XkOR4_C-19" value="&lt;div style=&quot;background-color: rgb(255 , 255 , 255) ; line-height: 20px&quot;&gt;&lt;font color=&quot;#999999&quot;&gt;低植被覆盖地表&lt;/font&gt;&lt;br&gt;&lt;/div&gt;" style="rounded=0;whiteSpace=wrap;html=1;fillColor=none;fontFamily=仿宋;fontSource=https%3A%2F%2Ffonts.googleapis.com%2Fcss%3Ffamily%3D%25E4%25BB%25BF%25E5%25AE%258B;fontStyle=1;fontSize=25;fontColor=#028760;spacing=2;" vertex="1" parent="1">
          <mxGeometry x="40" y="740" width="200" height="38" as="geometry" />
        </mxCell>
        <mxCell id="a5EtpKqR1Ngd7XkOR4_C-25" style="edgeStyle=orthogonalEdgeStyle;rounded=0;orthogonalLoop=1;jettySize=auto;html=1;startArrow=none;startFill=0;endArrow=none;endFill=0;strokeWidth=2;fontFamily=仿宋;fontSource=https%3A%2F%2Ffonts.googleapis.com%2Fcss%3Ffamily%3D%25E4%25BB%25BF%25E5%25AE%258B;fontSize=25;fontColor=#028760;" edge="1" parent="1">
          <mxGeometry relative="1" as="geometry">
            <mxPoint x="380" y="340" as="sourcePoint" />
            <mxPoint x="380" y="440" as="targetPoint" />
            <Array as="points">
              <mxPoint x="380" y="340" />
              <mxPoint x="520" y="340" />
              <mxPoint x="520" y="440" />
              <mxPoint x="380" y="440" />
            </Array>
          </mxGeometry>
        </mxCell>
        <mxCell id="a5EtpKqR1Ngd7XkOR4_C-30" style="edgeStyle=orthogonalEdgeStyle;rounded=0;orthogonalLoop=1;jettySize=auto;html=1;entryX=1;entryY=0.5;entryDx=0;entryDy=0;startArrow=none;startFill=0;endArrow=none;endFill=0;strokeWidth=2;fontFamily=仿宋;fontSource=https%3A%2F%2Ffonts.googleapis.com%2Fcss%3Ffamily%3D%25E4%25BB%25BF%25E5%25AE%258B;fontSize=25;fontColor=#028760;" edge="1" parent="1">
          <mxGeometry relative="1" as="geometry">
            <mxPoint x="510" y="570" as="sourcePoint" />
            <mxPoint x="360" y="685.0000000000002" as="targetPoint" />
            <Array as="points">
              <mxPoint x="600" y="570" />
              <mxPoint x="600" y="685" />
            </Array>
          </mxGeometry>
        </mxCell>
        <mxCell id="a5EtpKqR1Ngd7XkOR4_C-32" style="edgeStyle=orthogonalEdgeStyle;rounded=0;orthogonalLoop=1;jettySize=auto;html=1;startArrow=none;startFill=0;endArrow=none;endFill=0;strokeWidth=2;fontFamily=仿宋;fontSource=https%3A%2F%2Ffonts.googleapis.com%2Fcss%3Ffamily%3D%25E4%25BB%25BF%25E5%25AE%258B;fontSize=25;fontColor=#028760;" edge="1" parent="1">
          <mxGeometry relative="1" as="geometry">
            <mxPoint x="600" y="185" as="sourcePoint" />
            <mxPoint x="600" y="320" as="targetPoint" />
            <Array as="points">
              <mxPoint x="600" y="185" />
              <mxPoint x="740" y="185" />
              <mxPoint x="740" y="320" />
              <mxPoint x="600" y="320" />
            </Array>
          </mxGeometry>
        </mxCell>
        <mxCell id="a5EtpKqR1Ngd7XkOR4_C-33" style="edgeStyle=orthogonalEdgeStyle;rounded=0;orthogonalLoop=1;jettySize=auto;html=1;startArrow=none;startFill=0;endArrow=none;endFill=0;strokeWidth=2;fontFamily=仿宋;fontSource=https%3A%2F%2Ffonts.googleapis.com%2Fcss%3Ffamily%3D%25E4%25BB%25BF%25E5%25AE%258B;fontSize=25;fontColor=#028760;" edge="1" parent="1">
          <mxGeometry relative="1" as="geometry">
            <mxPoint x="740" y="250" as="sourcePoint" />
            <mxPoint x="700" y="690" as="targetPoint" />
            <Array as="points">
              <mxPoint x="790" y="250" />
              <mxPoint x="790" y="690" />
            </Array>
          </mxGeometry>
        </mxCell>
      </root>
    </mxGraphModel>
  </diagram>
</mxfile>
